<?xml version="1.0" encoding="UTF-8"?>
<svg id="Layer_2" data-name="Layer 2" xmlns="http://www.w3.org/2000/svg" viewBox="0 0 1194.06 269.49">
  <defs>
    <style>
      .cls-1 {
        fill: #7f99a6;
      }

      .cls-2 {
        fill: #7591a0;
      }

      .cls-3 {
        fill: #40647c;
      }

      .cls-4 {
        fill: #2c546f;
      }

      .cls-5 {
        fill: #57798c;
      }

      .cls-6 {
        fill: #4f7387;
      }

      .cls-7 {
        fill: #2f5771;
      }

      .cls-8 {
        fill: #738f9f;
      }

      .cls-9 {
        fill: #29526d;
      }

      .cls-10 {
        fill: #88a1ac;
      }

      .cls-11 {
        fill: #385e77;
      }

      .cls-12 {
        fill: #4d7085;
      }

      .cls-13 {
        fill: #638293;
      }

      .cls-14 {
        fill: #3c617a;
      }

      .cls-15 {
        fill: #345b74;
      }

      .cls-16 {
        fill: #688798;
      }

      .cls-17 {
        fill: #5b7c8e;
      }

      .cls-18 {
        fill: #5e7e91;
      }

      .cls-19 {
        fill: #41667d;
      }

      .cls-20 {
        fill: #89a2ac;
      }

      .cls-21 {
        fill: #6f8c9c;
      }

      .cls-22 {
        fill: #496d83;
      }

      .cls-23 {
        fill: #7a95a3;
      }

      .cls-24 {
        fill: #f5f7f7;
      }

      .cls-25 {
        fill: #839da9;
      }

      .cls-26 {
        fill: #829ca8;
      }

      .cls-27 {
        fill: #f5f6f7;
      }

      .cls-28 {
        fill: #456980;
      }
    </style>
  </defs>
  <g id="Layer_1-2" data-name="Layer 1">
    <g>
      <path class="cls-8" d="M846.38,0c5.05.63,12.7,4.84,16.48,8.26l8.27,10.46c3.3-6.57,8.89-12.72,15.62-15.86,1.54-.72,7.09-2.86,8.39-2.86h50.25l1.12,1.12v113.77c0,.32-1.98,5.1-2.38,5.86-13.54,25.39-62.98-4.31-70.79,24.41-.59,2.16.53,5.82-2.21,6.08-3.59.35-2.37-3.92-3.13-6.65-7.18-25.72-51.36-2.6-67.02-19.19-1.41-1.5-5.97-8.89-5.97-10.51V1.12l1.12-1.12h50.25ZM868.5,135.47V26.57c0-11.21-15.95-22.83-26.62-22.83h-42l-1.12,1.12v105.53c0,25.57,41.02,15.62,56.56,17.65,5.09.67,9.36,4.33,13.19,7.42ZM873,135.47c3.6-2.71,7.8-6.78,12.44-7.42,13.18-1.81,40.49,3.72,50.49-4.25,3.14-2.5,6.82-8.68,6.82-12.66V4.87l-1.12-1.12h-39.75c-9.84,0-20.31,5.03-25.27,13.7-.9,1.57-3.61,7.75-3.61,9.12v108.9Z"/>
      <path class="cls-14" d="M198.26,54.15c14.09-13.79,41.86-12.52,59.17-6.06,8.58,3.21,14.28,5.2,6.14,14.02-13.69-9.42-41.38-13.54-55.31-3.59-6.67,4.76-9.27,14.3-5.64,21.82,9.21,19.05,64.97,8.16,69.44,36.98,6.75,43.51-62.91,42.48-84.99,21.88l-.23-.97c1.48-1.27,3.29-7.57,5.42-7.19,13.76,12.38,49.43,18.32,63.84,5.91,5.52-4.76,7.65-14.23,4.29-20.72-8.97-17.31-56.17-8.31-67.3-30.88-5.04-10.23-2.98-23.23,5.17-31.2Z"/>
      <path class="cls-25" d="M1158,47.9c-.44,2.68,1.55,8.04-2.25,8.23-6.63-3.13-18.63-4.03-25.87-2.99-23.72,3.4-37.92,27.15-34.18,49.82l2.56.27c19.28-4.35,38.89-7.21,58.24-11.17,2.15,2.96,1.51,4.49,0,7.48-17.69,3.49-37.51,6.51-54.76,10.84-.91.23-4.41.85-4.54,1.58,6.17,24.72,33.38,36.53,57.04,30.24l.75,8.98c-44.6,9.8-79.84-25.28-68.03-69.76,8.28-31.18,41.74-45.96,71.03-33.53Z"/>
      <path class="cls-17" d="M675.75,132.48c0,.38.74,1.5.75,2.58.04,2.63-.03,5.27,0,7.9-45.13,33.11-104.15-16.7-80.38-69.36,15.57-34.5,68.16-41.91,90.05-10.46l-7.05,5.54c-21.33-26.47-65.89-18.63-75.32,14.82-9.5,33.7,15.25,66.43,51.14,59.27,7.99-1.59,14.23-5.9,20.82-10.28Z"/>
      <path class="cls-19" d="M313.5,20.96v23.2h34.5v8.98h-34.5v71.48c0,2.88,2.18,9.34,3.88,11.85,5.41,8,17.42,8.91,25.9,5.89,2.29-.81,6.55-4.9,8.09-3.16l3.32,6.66c-14.91,10.95-42.16,9.94-49.27-9.45-.98-2.67-2.42-9.18-2.42-11.81V53.14h-19.5v-8.98h19.5v-23.2h10.5Z"/>
      <path class="cls-13" d="M729.75,20.96v23.2h34.5v8.98h-34.5v69.98c0,.63.73,5.66.93,6.56,2.83,13.25,16.59,16.59,28.32,12.89,1.78-.56,7.24-4.43,8.27-3.78l3.68,7.07c-15.1,11.29-43.36,9.66-49.65-10.56-.59-1.89-2.04-7.58-2.04-9.19V53.14h-19.5v-8.98h19.5v-23.2h10.5Z"/>
      <path class="cls-6" d="M549,130.23c-11.48,19.24-31.6,26.04-53.44,21.52-16.51-3.42-32.06-19.56-32.06-36.86V44.16h10.5v67.74c0,13.28,9.61,25.87,22.11,29.58,24.88,7.38,48.66-5.02,52.14-31.45,1.67-.11,2.64-.03,3,1.87s.36,12.97-.02,14.95c-.28,1.47-1.53,2.2-2.24,3.38Z"/>
      <path class="cls-7" d="M140.25,49.4c.16,4.05.25,7.51-1.5,11.23-11.92-10.48-38.72-10.21-50.61.02-5.41,4.65-13.89,18.79-13.89,25.81v65.49h-10.5V44.16h9.75v22.45l11.62-13.47c5.81-4.55,8.91-5.19,15.61-6.75.58-.13.46-1.34,1.03-1.47,12.8-2.93,26.95-2.04,38.49,4.48Z"/>
      <path class="cls-23" d="M1046.25,105.53c-6.97,15.32-13.67,30.83-20.37,46.28l-11.14-.23-47.99-106.3c-.17-1.54.08-.98,1.12-1.12,2.24-.31,8.7-.54,10.07,1.2l42.45,94.6c7.88-17.19,15.82-34.41,23.62-51.64,1.97-.65,2.09,3.26,2.15,4.2.32,4.67-1.61,8.92.1,13.01Z"/>
      <path class="cls-22" d="M434.25,43.41v10.48c-17.47-1.92-33.42,8.23-38.21,25.12-.64,2.24-2.29,9.28-2.29,11.19v61.75h-10.5V44.16h10.5v21.71l10.89-13.46c8.47-6.38,19.03-9.03,29.61-9Z"/>
      <rect class="cls-9" x="6" y="7.48" width="10.5" height="144.46"/>
      <path class="cls-15" d="M140.25,49.4c15.35,8.67,19.39,23.31,20.28,40.01,1.09,20.49-.88,41.95-.03,62.53h-11.25v-70.73c0-6.16-5.85-16.49-10.5-20.58,1.75-3.72,1.66-7.18,1.5-11.23Z"/>
      <path class="cls-5" d="M548.25,110.03c.33-2.53.65-6.7.78-9.32.92-18.56-.75-37.9-.03-56.54h10.5v107.78h-10.5v-21.71c.71-1.19,1.96-1.91,2.24-3.38.38-1.99.39-12.98.02-14.95s-1.33-1.98-3-1.87Z"/>
      <path class="cls-20" d="M1156.5,99.55c1.51-2.99,2.15-4.52,0-7.48,6.99-1.43,14.17-3.04,21.05-4.95-1.33-6.46-3.87-13.08-7.68-18.5-2.54-3.62-10.24-10.64-14.12-12.48,3.8-.19,1.81-5.55,2.25-8.23,18.51,7.86,29.62,25.75,29.68,45.71-10.1,2.67-20.84,3.9-31.18,5.93Z"/>
      <path class="cls-19" d="M239.25,257.1c-2.31,14.75-22.86,14.86-32.31,7.42l1.58-4.04c10.72,6.92,27.82,7.25,25.47-9.74-3.11,1.23-5.21,3.7-8.8,4.31-26.97,4.57-27.5-36.12.13-31.96,3.88.58,6.16,3.5,9.42,5.19v-5.24s4.51,0,4.51,0v34.06ZM212.51,247.48c5.74,6.14,18.94,4.22,21.52-4.56,3.32-11.28-7.43-18.89-17.69-14.66-7.52,3.1-9.22,13.47-3.83,19.23Z"/>
      <path class="cls-11" d="M105,224.17c.2-.64,1.2-1.04,1.89-1.15,4.23-.71,3.02,2.51,3.73,5.27,7.15-8.49,21.82-6.79,26.76,3.24,9.12,18.48-12.57,34.19-27.13,19.97v17.21h-5.25v-44.53ZM121.34,226.94c-15.85,1.27-14.61,26.37,1.25,26.07,16.61-.32,15.64-27.41-1.25-26.07Z"/>
      <path class="cls-1" d="M1044,88.32c6.63-14.64,12.98-29.46,19.5-44.16h10.5c-8.47,20.8-18.46,40.95-27.75,61.37-1.71-4.09.22-8.34-.1-13.01-.06-.94-.19-4.86-2.15-4.2Z"/>
      <path class="cls-26" d="M1071,209.57v47.15h-4.5s0-5.24,0-5.24c-13.58,13.05-33.71.92-28.28-17.38,3.22-10.86,17.29-14.69,26.01-7.67,1.21.97,1.09,2.41,2.28,2.59v-19.46h4.5ZM1052.83,226.93c-15.2,2.09-13.52,26.6,2.03,26.08,16.89-.56,15-28.43-2.03-26.08Z"/>
      <polygon class="cls-4" points="4.5 232.03 32.25 232.03 32.25 211.82 36.75 211.82 36.75 256.73 32.25 256.73 32.25 236.52 4.5 236.52 4.5 256.73 0 256.73 0 211.82 4.5 212.94 4.5 232.03"/>
      <path class="cls-28" d="M295.5,241.76c1.19,11.24,11.8,13.14,20.81,8.45,1.23-.64.52-2.04,2.05-1.71,5.05,3.03-2.18,7.4-5.41,8.06-10.63,2.15-21.35-3.12-22.62-14.51-2.48-22.26,29.31-26.8,32.58-4.82.14.94.83,4.53-.79,4.53h-26.62ZM318,238.01c-.48-14.93-21.54-14.65-23.25,0h23.25Z"/>
      <path class="cls-15" d="M79.5,241.76h-27.75c.37,9.03,10.29,13.01,18.01,10.11,2.78-1.04,5.52-5.27,7.49-.03-11.14,10.4-30.72,4.2-30.8-11.95-.11-23.38,35.39-22.14,33.05,1.87ZM75,238.01c-1.33-14.7-22.92-14.9-23.25,0h23.25Z"/>
      <path class="cls-17" d="M585.75,241.76c.5,11.39,15.71,14.53,22.87,6.75,5.01,3.04-2.18,7.4-5.42,8.05-15.1,3.06-27.17-9.42-21.13-24.08,5.31-12.89,25.05-12.88,30.06.54.52,1.39,2.68,8.75.24,8.75h-26.62ZM609,238.01c-1.43-14.72-22.86-14.89-23.25,0h23.25Z"/>
      <path class="cls-18" d="M642.75,237.27c1.2-13.14-12.58-11.24-20.57-6.7-4.21-4.93,5.95-7.27,9.67-7.54,21.11-1.54,15.69,18.8,15.83,33-.75,1.08-3.85,1.09-4.59,0l-.34-3.03c-7.57,8.25-28.94,2.77-22.4-10.01,1.58-3.08,7.58-5.71,10.78-5.71h11.62ZM642.75,241.01h-12.38c-7.55,0-9.89,12.56,3.03,12.01,7.5-.32,10.35-4.79,9.35-12.01Z"/>
      <path class="cls-12" d="M409.5,209.57v18.71c5.2-6.01,17.21-7.56,22.91-1.53,1.06,1.13,3.34,5.88,3.34,7.15v22.83h-4.5v-20.58c0-1.01-2.1-5.82-3.04-6.69-2.85-2.65-10.11-2.56-13.4-.73-1.71.95-5.31,5.63-5.31,7.42v20.58h-4.5v-47.15h4.5Z"/>
      <path class="cls-13" d="M699.75,209.57v18.71c5.23-5.9,16.57-7.51,22.53-1.91,1.01.94,3.72,5.77,3.72,6.77v23.58h-4.5v-22.08c0-.23-1.55-3.66-1.89-4.1-3.67-4.88-14.11-3.9-17.62,1.11-.81,1.16-2.25,4.86-2.25,5.99v19.09h-4.5v-47.15h4.5Z"/>
      <path class="cls-16" d="M783.75,241.76h-27.75c1.58,11.8,15.49,14.11,23.61,6.72l1.58,3.76c-9.06,8.94-27.74,4.73-29.62-8.68-3.73-26.61,34.06-27.62,32.18-1.8ZM779.25,238.01c-.99-14.84-22.11-14.91-23.25,0h23.25Z"/>
      <path class="cls-6" d="M449.25,241.76c.7,9.66,10.11,12.81,18.54,9.9,2.74-.95,5.05-4.93,6.95.18-15.17,13.26-37.37-.95-28.62-20.31,4.44-9.82,19.88-11.6,26.77-3.26,2.51,3.04,5.95,10.14,2.98,13.49h-26.62ZM472.5,238.01c-1.14-14.61-22.8-14.99-23.25,0h23.25Z"/>
      <path class="cls-21" d="M828.75,241.76c.51,11.4,15.68,14.52,22.87,6.76l2.63,3.31c-14.81,13.53-37.69-1.58-28.65-20.33,4.73-9.82,20.36-11.68,27.15-2.84,1.43,1.87,6.18,13.1,2.63,13.1h-26.62ZM852,238.01c-1.08-14.68-23.02-14.89-23.25,0h23.25Z"/>
      <path class="cls-25" d="M1085.25,241.76c.43,9.14,9.96,12.89,18,10.1,1.68-.58,4.21-2.98,5.61-2.61l1.17,1.87c-5.93,9.66-23.75,6.64-28.16-3.36-10.13-22.94,23.22-34.8,30.01-14.23.45,1.36,2.11,8.23,0,8.23h-26.62ZM1108.5,238.01c-1.14-14.79-22.94-14.9-23.25,0h23.25Z"/>
      <path class="cls-22" d="M357,256.73h-4.5s0-4.49,0-4.49c-6.46,7.55-23.72,6.52-23.31-5.62.13-3.75,2.14-6.63,5.65-7.89.85-.3,5.52-1.46,6.04-1.46h11.62c.78-13.04-12.47-11.25-20.61-6.73-4.68-6.91,11.28-8.13,15.69-7.44,2.89.45,9.42,4.82,9.42,7.81v25.82ZM352.5,241.01h-12.38c-5.44,0-9.07,6.66-4.39,10.37,6.78,5.39,19.77-.5,16.77-10.37Z"/>
      <path class="cls-3" d="M165,223.04l4.55.33.71,4.17c6.25-6,18.88-6.9,23.87,1.25.74,1.22,2.37,5.47,2.37,6.61v21.33h-5.25v-22.08c0-.97-2.02-4.38-3.03-5.21-3.37-2.75-10.72-2.6-14.2-.02-.99.74-3.77,5.04-3.77,5.97v21.33h-5.25v-33.68Z"/>
      <path class="cls-2" d="M889.38,223.17l12.49,27.58,11.99-26.96,4.88-.74-18.12,40.66c-2.05,2.99-5.51,5.65-9.28,5.77-2.71.09-9.8-1.83-7.51-5.31,1.2-1.83,3.69.49,5.32.74,6.33.98,8.12-3.49,10.03-8.57l-14.19-33.3,4.38.12Z"/>
      <path class="cls-1" d="M1002.75,223.04v22.83c0,.75,2.8,4.57,3.78,5.21,3.75,2.48,10.65,1.93,13.86-1.08.83-.78,3.36-5.61,3.36-6.38v-20.58h4.5v33.68h-4.5s0-5.24,0-5.24c-6.43,8.3-22.39,7.15-25.31-3.55-1.09-3.99-1.67-19.07-.93-23.02.51-2.73,3.08-1.77,5.25-1.87Z"/>
      <path class="cls-10" d="M1122,223.04h4.5s0,5.24,0,5.24c6.28-7.08,20.69-7.76,24.88,1.73.26.58,1.36,3.66,1.36,3.88v22.83h-4.5v-21.33c0-.92-2.43-5.44-3.48-6.26-3.39-2.65-11.42-2.15-14.7.63-.89.75-3.57,5.55-3.57,6.38v20.58h-4.5v-33.68Z"/>
      <path class="cls-5" d="M532.48,225.33l-1.21,3.77c-4.01-1.15-15.55-4.2-17.89.68-5.09,10.64,17.78,6.05,20.29,14.18,4.55,14.78-18.17,15.21-26.61,9.71l1.88-4.41c3.99,3.51,19.83,5.94,20.58-1.17.88-8.31-18.46-3.44-21.27-12.45-4.26-13.67,15.88-14.79,24.23-10.32Z"/>
      <path class="cls-23" d="M962.97,225.33l-1.83,4.35c-4.04-3.52-18.33-4.41-18.34,2.72,0,8.48,21.77,2.39,21.77,14.97s-19.64,10.94-27.02,6.3l1.81-4.34c4.15,3.76,20.55,6,20.58-1.95.03-7.49-19.07-2.67-21.37-12.3-3.27-13.67,15.97-13.84,24.4-9.75Z"/>
      <path class="cls-12" d="M395.99,230.52c-.09.13-2.62.8-3.21.65-1.79-.44-4.39-3.68-8.74-4.05-20.11-1.67-15.99,32.95,4.71,24.23,3.78-2.05,4.09-6.44,7.2-.35-7.77,10.58-27.51,6.33-29.76-6.81s6.86-22.96,20.38-21.09c2.42.34,11.44,4.56,9.43,7.41Z"/>
      <path class="cls-13" d="M686.24,230.52c-.09.13-2.61.8-3.21.65-2.06-.51-3.79-3.72-8.75-4.03-17.48-1.1-17.06,26.22-.48,25.78,4.66-.12,7.23-3.82,9.23-4.31.6-.15,3.12.52,3.21.65,1.77,2.52-6.26,7.06-8.68,7.41-28.89,4.11-27.75-38.13-.11-33.44,2.27.38,10.68,4.62,8.8,7.3Z"/>
      <path class="cls-12" d="M273.75,249.62c1.22,4.36,8.13,2.97,11.2,1.9,3.54,6.77-9.31,6.16-12.96,3.59-6.05-4.25-2.56-20.76-3.49-27.58l-5.3-.32-.7-4.16h6.01s0-7.49,0-7.49h5.26s0,7.49,0,7.49h9.76s0,4.06,0,4.06l-9.76.43c1.04,5.74-1.39,17.1,0,22.08Z"/>
      <path class="cls-21" d="M803.26,250.74c.61.47,1.89-2.21,2.15-2.71,3.99-7.86,7.34-16.71,10.68-24.89l4.42-.08-13.56,32.49c-.98,1.72-3.09,1.15-4.85,1.24l-15.33-33.73c1.27.07,2.8-.27,4,.12,1.99.64,11.16,23.82,12.5,27.57Z"/>
      <path class="cls-23" d="M973.5,227.54h-6s0-4.06,0-4.06l6.02-.43v-7.49s4.17.7,4.17.7l.32,6.79,10.18.69.26,2.6-1.17,1.09-9.27.11c1.39,9.33-5.49,30.9,11.25,23.95l.74,2.67-.73,1.45c-4.39,2.89-15.75.87-15.75-5.24v-22.83Z"/>
      <path class="cls-20" d="M1165.5,227.54l-6.01-.43v-4.06s6.02,0,6.02,0v-6.74s4.5,0,4.5,0v6.74s10.17.69,10.17.69l.26,2.6-1.17,1.09-9.27.11c1.32,9.19-5.3,30.94,11.25,23.95l.74,2.67-.73,1.45c-3.85,1.71-9.94,1.92-13.15-1.1-.52-.49-2.61-3.85-2.61-4.13v-22.83Z"/>
      <path class="cls-10" d="M1155,151.19l-.75-8.98c7.14-1.89,16.03-7.77,20.7-13.44l6.24,6.44c-5.79,8.18-16.53,13.86-26.19,15.98Z"/>
      <path class="cls-17" d="M558.75,223.04h4.5s0,5.24,0,5.24c3.63-3.7,7.3-5.67,12.74-5.24v4.5c-3.75-.39-8.87,1.11-10.82,4.54-.33.58-1.93,5.26-1.93,5.56v19.09h-4.5v-33.68Z"/>
      <path class="cls-5" d="M486,223.04h4.5s0,5.24,0,5.24c3.7-3.64,7.24-5.95,12.75-5.24v4.5c-5.32-1.42-12.75,3.98-12.75,9.35v19.83h-4.5v-33.68Z"/>
      <rect class="cls-7" x="88.5" y="209.57" width="4.5" height="47.15"/>
      <path class="cls-21" d="M865.5,223.04h4.5s0,5.24,0,5.24c3.47-3.44,6.8-5.55,11.99-5.24v4.5c-5.17-1.4-12,4.39-12,9.35v19.83h-4.5v-33.68Z"/>
      <rect class="cls-14" x="148.5" y="223.04" width="4.5" height="33.68"/>
      <path class="cls-18" d="M676.5,142.96c-.03-2.63.05-5.26,0-7.9-.02-1.08-.75-2.2-.75-2.58-.01-1.29,1.93-4.46,3.34-4.5,1.67-.05,5.78,3.58,7.06,4.97.33,1.68-6.25,8.04-7.78,9.29-.66.54-1.59.51-1.87.72Z"/>
      <path class="cls-20" d="M1193.14,256.62c-5.44,3.4-8.67-7.64-1.81-6.64,3.44.5,3.1,5.83,1.81,6.64Z"/>
      <ellipse class="cls-14" cx="150.64" cy="212.84" rx="3.47" ry="3.46"/>
      <path class="cls-27" d="M868.5,135.47c-3.83-3.09-8.09-6.75-13.19-7.42-15.54-2.04-56.56,7.92-56.56-17.65V4.87l1.12-1.12h42c10.67,0,26.62,11.62,26.62,22.83v108.9Z"/>
      <path class="cls-24" d="M873,135.47V26.57c0-1.38,2.71-7.55,3.61-9.12,4.95-8.68,15.42-13.7,25.27-13.7h39.75l1.12,1.12v106.28c0,3.97-3.68,10.15-6.82,12.66-10.01,7.97-37.31,2.44-50.49,4.25-4.64.64-8.84,4.71-12.44,7.42Z"/>
    </g>
  </g>
</svg>